<?xml version="1.0" standalone="no"?>
<!DOCTYPE svg PUBLIC "-//W3C//DTD SVG 20010904//EN"
 "http://www.w3.org/TR/2001/REC-SVG-20010904/DTD/svg10.dtd">
<svg version="1.0" xmlns="http://www.w3.org/2000/svg"
 width="342.000000pt" height="342.000000pt" viewBox="0 0 342.000000 342.000000"
 preserveAspectRatio="xMidYMid meet">
<metadata>
Created by potrace 1.14, written by Peter Selinger 2001-2017
</metadata>
<g transform="translate(0.000000,342.000000) scale(0.100000,-0.100000)"
fill="#000000" stroke="none">
<path d="M1620 3065 c-14 -8 -35 -14 -46 -15 -12 0 -38 -7 -58 -15 -21 -9 -62
-16 -92 -16 -29 -1 -51 -5 -48 -10 3 -5 -3 -8 -13 -7 -37 3 -64 -2 -58 -11 3
-5 -31 -27 -75 -48 -58 -28 -84 -46 -93 -65 -6 -16 -16 -28 -21 -28 -4 0 -5
-11 -2 -24 4 -18 2 -23 -10 -22 -19 1 -88 -90 -79 -105 10 -16 -81 -188 -127
-239 -14 -16 -13 -50 2 -50 5 0 10 6 13 13 2 6 4 -7 3 -30 0 -24 -4 -43 -8
-43 -5 0 -8 5 -8 10 0 18 -16 10 -29 -14 -11 -19 -10 -27 0 -44 11 -17 11 -24
1 -34 -17 -17 -15 -48 4 -48 11 0 14 -4 7 -12 -5 -7 -15 -26 -21 -42 -11 -24
-10 -28 2 -23 10 4 12 0 8 -15 -2 -11 1 -24 8 -28 7 -4 12 -20 12 -34 0 -15 4
-29 9 -32 5 -3 9 -16 9 -30 0 -15 -4 -23 -10 -19 -7 4 -9 -2 -5 -17 3 -13 2
-36 -4 -50 -8 -22 -7 -26 4 -22 11 5 11 -2 3 -35 -8 -30 -7 -45 1 -55 6 -7 14
-43 18 -80 3 -36 10 -66 15 -66 4 0 6 12 2 28 -6 26 -6 26 9 6 9 -11 20 -48
27 -82 6 -34 18 -78 26 -98 8 -20 13 -39 9 -42 -3 -3 7 -18 21 -33 25 -26 44
-86 48 -155 2 -17 12 -45 24 -62 17 -23 20 -35 13 -54 -6 -12 -10 -17 -10 -10
-2 25 -17 3 -19 -27 -2 -33 13 -43 21 -13 3 11 5 9 6 -8 1 -14 8 -38 16 -54 8
-15 15 -41 15 -57 0 -18 7 -32 19 -39 11 -5 21 -20 23 -32 2 -13 6 -21 9 -18
11 9 38 -21 44 -51 8 -35 18 -37 32 -6 10 21 6 29 -23 61 -19 20 -37 48 -40
61 -3 14 -9 25 -13 25 -17 0 -57 142 -45 162 3 5 -5 33 -19 61 -14 29 -28 68
-30 87 -3 19 -11 71 -17 115 -13 93 -5 224 15 231 7 3 16 20 19 38 4 19 25 54
51 82 l44 49 120 -3 c117 -3 148 5 124 29 -27 27 -255 60 -268 39 -3 -6 -14
-14 -23 -19 -15 -8 -17 -2 -17 52 0 34 -4 71 -9 82 -5 11 -8 28 -7 39 2 11 -2
16 -8 12 -6 -4 -11 0 -11 8 0 9 5 16 11 16 7 0 9 10 5 26 -5 17 -3 23 4 19 6
-4 10 4 10 17 0 21 5 24 43 26 58 4 77 11 77 29 0 9 6 13 14 10 8 -3 22 1 33
8 10 8 27 15 37 15 11 0 16 3 13 7 -14 14 45 31 92 28 28 -3 53 0 56 5 4 6 11
8 16 4 10 -6 79 33 79 44 0 8 74 42 89 42 5 0 14 7 21 15 7 8 27 15 45 15 23
0 48 11 79 35 26 19 51 35 56 35 6 0 10 9 10 21 0 11 4 18 8 15 5 -3 27 8 49
24 22 16 43 27 47 23 12 -12 6 -22 -16 -25 -17 -2 -24 -11 -26 -30 -3 -23 0
-28 20 -28 18 0 20 -2 8 -10 -12 -8 -9 -10 13 -10 15 0 27 5 27 10 0 16 17 12
52 -13 81 -57 166 -160 167 -203 1 -11 4 -39 7 -63 5 -31 3 -42 -5 -37 -7 5
-11 -6 -11 -33 0 -22 -4 -42 -9 -46 -13 -8 -3 -112 15 -154 9 -20 26 -74 39
-121 63 -231 62 -228 74 -195 6 17 16 38 21 47 6 10 10 25 10 35 0 13 3 14 12
5 15 -15 32 -16 23 -2 -4 6 21 38 54 72 34 33 61 68 61 78 0 10 9 22 20 25 12
4 20 15 20 28 0 16 -3 18 -9 8 -7 -11 -10 -11 -17 0 -9 16 -6 151 4 159 11 8
11 60 1 60 -12 0 -12 57 0 64 11 7 20 65 11 71 -4 3 -2 20 4 39 l11 35 12 -27
13 -27 -5 30 c-17 99 -17 100 -5 85 10 -13 11 -13 6 0 -2 8 -10 33 -16 55 -7
22 -17 50 -22 62 -6 11 -8 26 -4 31 11 18 -16 76 -48 104 -22 19 -26 27 -15
28 9 0 22 -7 29 -15 17 -21 29 -19 23 5 -3 11 -23 27 -44 37 -21 9 -39 20 -39
24 0 4 -19 30 -42 58 -52 62 -94 75 -138 43 -29 -22 -40 -20 -40 8 0 9 -12 30
-27 47 -16 16 -39 44 -53 61 -14 17 -35 31 -47 32 -31 0 -53 10 -53 24 0 15
-42 16 -52 2 -5 -7 -8 -4 -8 7 0 11 -8 17 -24 17 -13 0 -33 3 -43 6 -13 4 -14
3 -5 -4 11 -7 9 -10 -6 -14 -16 -5 -20 -1 -17 13 2 11 0 17 -4 14 -11 -6 -123
15 -135 26 -6 5 -25 9 -42 9 -18 0 -39 7 -48 15 -18 18 -34 18 -66 0z m247
-76 c-14 -8 -22 -8 -30 0 -8 8 -3 11 19 11 25 -1 27 -2 11 -11z m543 -269 c0
-12 -2 -13 -9 -1 -5 7 -14 10 -20 7 -7 -5 -11 1 -11 13 0 19 2 20 20 9 11 -7
20 -20 20 -28z m-380 -242 c0 -12 -10 -9 -26 6 -20 21 -17 28 6 14 11 -7 20
-16 20 -20z m508 -623 c-12 -13 -61 -9 -66 4 -2 8 -1 11 4 9 5 -3 18 -2 29 2
19 8 44 -4 33 -15z m-36 -32 c-6 -2 -9 -9 -6 -15 4 -6 1 -9 -6 -6 -24 8 -23
28 2 27 13 0 17 -3 10 -6z m-1405 -145 c-3 -8 -6 -5 -6 6 -1 11 2 17 5 13 3
-3 4 -12 1 -19z"/>
<path d="M1910 2465 c0 -8 2 -15 4 -15 2 0 6 7 10 15 3 8 1 15 -4 15 -6 0 -10
-7 -10 -15z"/>
<path d="M2025 1909 c-33 -5 -80 -10 -105 -13 -68 -8 -140 -32 -140 -47 0 -15
128 -10 167 6 46 20 155 19 193 0 37 -19 38 -13 3 20 -41 39 -52 42 -118 34z"/>
<path d="M1865 1770 c-4 -6 7 -8 32 -4 50 8 55 14 10 14 -20 0 -39 -5 -42 -10z"/>
<path d="M1393 1753 c4 -6 19 -13 34 -16 16 -3 45 -17 66 -31 21 -15 37 -20
37 -13 -1 22 -35 52 -60 53 -14 0 -38 4 -54 9 -19 5 -27 4 -23 -2z"/>
<path d="M1895 1745 c-25 -11 -27 -14 -9 -14 13 -1 24 -9 27 -21 6 -25 52 -27
85 -4 20 14 24 14 38 0 25 -25 58 -19 47 9 -2 8 -18 17 -34 20 -16 4 -31 11
-34 16 -9 14 -86 10 -120 -6z"/>
<path d="M0 890 c0 -467 2 -850 5 -850 2 0 20 24 39 54 37 57 84 95 181 143
133 67 268 112 378 128 38 5 59 16 104 56 93 81 146 105 328 149 50 11 116 29
147 38 l58 17 11 58 c7 32 16 60 20 63 14 8 10 34 -5 34 -14 0 -31 -57 -28
-98 1 -16 -3 -22 -12 -19 -20 8 -28 -4 -15 -20 9 -9 8 -13 0 -13 -6 0 -11 5
-11 11 0 6 -7 9 -15 5 -11 -4 -15 2 -15 24 0 17 -4 30 -10 30 -5 0 -10 18 -10
40 0 22 -4 40 -10 40 -18 0 -11 59 9 79 16 16 17 20 5 25 -8 3 -14 12 -14 21
0 8 -4 15 -10 15 -5 0 -10 -13 -10 -30 0 -20 -5 -30 -15 -30 -12 0 -15 15 -15
74 0 46 -6 84 -15 102 -14 27 -16 28 -21 8 -4 -16 -13 -21 -37 -20 -27 1 -32
5 -33 26 -1 14 -2 31 -3 38 -1 8 -23 12 -76 12 l-75 0 0 40 0 40 -65 0 -65 0
0 58 c-1 83 -19 101 -104 103 l-66 2 0 38 c0 22 -4 39 -10 39 -5 0 -10 18 -10
40 0 29 -4 40 -15 40 -9 0 -15 -9 -15 -25 0 -32 -13 -32 -38 0 -17 22 -28 25
-86 26 l-66 2 0 38 0 39 -50 0 -50 0 0 40 c0 29 -4 40 -15 40 -8 0 -15 -7 -15
-15 0 -11 -11 -15 -39 -15 -22 0 -41 -5 -44 -12 -3 -9 -12 -6 -28 11 -17 16
-20 25 -12 28 8 3 13 22 13 44 0 35 -3 39 -25 39 l-25 0 0 -850z m1040 10 c0
-29 -4 -40 -15 -40 -11 0 -15 11 -15 40 0 29 4 40 15 40 11 0 15 -11 15 -40z
m102 -255 c0 -5 -5 -11 -11 -13 -6 -2 -11 4 -11 13 0 9 5 15 11 13 6 -2 11 -8
11 -13z m-39 -42 c-7 -2 -19 -2 -25 0 -7 3 -2 5 12 5 14 0 19 -2 13 -5z"/>
<path d="M1281 1719 c-24 -10 -49 -19 -57 -19 -8 0 -14 -6 -14 -14 0 -8 -3
-21 -6 -30 -10 -26 21 -19 55 13 29 27 32 28 44 12 11 -15 22 -18 68 -13 21 3
44 51 26 56 -45 14 -77 13 -116 -5z"/>
<path d="M1431 1714 c2 -25 15 -43 27 -35 9 6 8 12 -8 26 -11 10 -20 14 -19 9z"/>
<path d="M1011 1414 c0 -11 3 -14 6 -6 3 7 2 16 -1 19 -3 4 -6 -2 -5 -13z"/>
<path d="M1470 1322 c0 -39 14 -62 38 -62 8 0 27 -11 44 -25 26 -22 88 -36 88
-20 0 3 -15 21 -32 41 -27 30 -37 35 -63 30 -40 -8 -58 6 -58 43 0 17 -4 31
-9 31 -4 0 -8 -17 -8 -38z"/>
<path d="M2331 1248 c1 -45 2 -49 9 -23 11 44 11 75 0 75 -6 0 -9 -23 -9 -52z"/>
<path d="M1020 1195 c0 -8 5 -15 10 -15 6 0 10 7 10 15 0 8 -4 15 -10 15 -5 0
-10 -7 -10 -15z"/>
<path d="M1959 1145 c-3 -2 -19 -5 -37 -7 -32 -2 -46 -18 -17 -18 9 0 15 -9
15 -21 0 -15 -5 -19 -15 -15 -10 4 -15 -1 -15 -15 0 -11 4 -19 9 -17 22 8 91
80 86 88 -7 11 -19 13 -26 5z"/>
<path d="M1410 1098 c0 -17 56 -70 90 -85 47 -21 70 -22 80 -4 11 21 -5 42
-27 34 -9 -4 -18 5 -26 26 -10 27 -16 31 -48 31 -21 0 -44 3 -53 6 -10 4 -16
1 -16 -8z"/>
<path d="M1535 1090 c3 -5 10 -10 16 -10 5 0 9 5 9 10 0 6 -7 10 -16 10 -8 0
-12 -4 -9 -10z"/>
<path d="M1179 804 c-10 -27 -7 -90 6 -102 9 -9 26 13 26 34 1 27 -9 86 -15
92 -3 3 -10 -8 -17 -24z"/>
<path d="M2305 793 c7 -40 32 -137 42 -163 3 -8 7 -28 9 -45 2 -16 9 -43 15
-58 25 -59 -12 -286 -60 -377 -8 -15 -22 -70 -23 -87 0 -5 -4 -16 -9 -26 -5
-9 -6 -17 -1 -17 5 0 14 15 20 32 6 18 27 78 47 133 57 159 74 247 70 355 -3
98 -5 106 -37 178 -29 67 -31 44 -3 -29 14 -35 24 -73 23 -83 -2 -10 -17 24
-34 77 -17 53 -26 93 -21 90 6 -4 1 8 -12 25 -12 18 -25 32 -27 32 -3 0 -2
-17 1 -37z"/>
<path d="M1313 752 c-8 -25 -9 -49 -3 -68 8 -28 8 -28 10 -4 2 21 4 19 10 -10
7 -32 7 -30 9 21 0 30 7 61 13 67 10 10 10 15 -2 22 -22 14 -24 13 -37 -28z"/>
<path d="M1378 770 c-24 -15 -2 -70 28 -70 25 0 38 -22 21 -39 -8 -8 -8 -14 1
-23 9 -9 12 -7 12 10 0 25 10 28 28 10 13 -13 82 -20 82 -9 0 4 -10 11 -22 16
-14 6 -24 21 -26 38 -2 15 -9 27 -18 27 -8 0 -14 7 -14 15 0 29 -58 44 -92 25z"/>
<path d="M1275 679 c-9 -38 -8 -59 8 -144 8 -44 20 -125 27 -179 14 -115 28
-162 31 -106 5 90 3 146 -4 156 -4 6 -3 24 3 38 7 20 7 25 -2 20 -8 -5 -9 5
-6 34 3 23 2 42 -4 44 -5 2 -15 36 -21 75 -14 79 -23 98 -32 62z"/>
<path d="M1350 680 c0 -3 4 -11 9 -19 7 -11 11 -10 19 6 9 15 7 19 -9 19 -10
0 -19 -3 -19 -6z"/>
<path d="M1311 634 c0 -11 3 -14 6 -6 3 7 2 16 -1 19 -3 4 -6 -2 -5 -13z"/>
<path d="M1498 623 c7 -3 16 -2 19 1 4 3 -2 6 -13 5 -11 0 -14 -3 -6 -6z"/>
<path d="M1543 623 c9 -2 17 -8 17 -13 0 -13 -34 -22 -38 -11 -2 6 -8 11 -13
11 -18 0 -8 -22 23 -53 30 -30 31 -31 25 -8 -7 30 8 61 31 62 20 1 -25 17 -48
17 -10 0 -9 -2 3 -5z"/>
<path d="M1321 594 c0 -11 3 -14 6 -6 3 7 2 16 -1 19 -3 4 -6 -2 -5 -13z"/>
<path d="M1638 593 c7 -3 16 -2 19 1 4 3 -2 6 -13 5 -11 0 -14 -3 -6 -6z"/>
<path d="M1582 568 c3 -7 13 -15 22 -16 12 -3 17 1 14 10 -3 7 -13 15 -22 16
-12 3 -17 -1 -14 -10z"/>
<path d="M1646 561 c-3 -5 11 -9 32 -9 29 0 32 2 17 9 -27 11 -43 11 -49 0z"/>
<path d="M3355 490 c-3 -6 1 -7 9 -4 18 7 21 14 7 14 -6 0 -13 -4 -16 -10z"/>
</g>
</svg>
